<?xml version="1.0" encoding="UTF-8" standalone="no"?>
<svg
   xmlns:dc="http://purl.org/dc/elements/1.1/"
   xmlns:cc="http://creativecommons.org/ns#"
   xmlns:rdf="http://www.w3.org/1999/02/22-rdf-syntax-ns#"
   xmlns:svg="http://www.w3.org/2000/svg"
   xmlns="http://www.w3.org/2000/svg"
   xmlns:sodipodi="http://sodipodi.sourceforge.net/DTD/sodipodi-0.dtd"
   xmlns:inkscape="http://www.inkscape.org/namespaces/inkscape"
   width="100%"
   height="100%"
   viewBox="0 0 362 361"
   version="1.1"
   xml:space="preserve"
   fill="#ecf0f1"
   style="fill-rule:evenodd;clip-rule:evenodd;stroke-linejoin:round;stroke-miterlimit:2;"
   id="svg7"
   sodipodi:docname="nav-logo.svg"
   inkscape:version="0.92.3 (2405546, 2018-03-11)"><metadata
     id="metadata13"><rdf:RDF><cc:Work
         rdf:about=""><dc:format>image/svg+xml</dc:format><dc:type
           rdf:resource="http://purl.org/dc/dcmitype/StillImage" /></cc:Work></rdf:RDF></metadata><defs
     id="defs11" /><sodipodi:namedview
     pagecolor="#ffffff"
     bordercolor="#666666"
     borderopacity="1"
     objecttolerance="10"
     gridtolerance="10"
     guidetolerance="10"
     inkscape:pageopacity="0"
     inkscape:pageshadow="2"
     inkscape:window-width="1869"
     inkscape:window-height="1025"
     id="namedview9"
     showgrid="false"
     inkscape:zoom="0.65373961"
     inkscape:cx="173.35169"
     inkscape:cy="180.5"
     inkscape:window-x="51"
     inkscape:window-y="27"
     inkscape:window-maximized="1"
     inkscape:current-layer="svg7" /><g
     id="Icon"
     style="fill:darkslateblue;fill-opacity:1"><path
       d="M301.249,303.352l57.216,57.222l-178.351,0c-37.152,0 -72.815,-11.146 -103.286,-32.699c-23.041,-16.348 -42.355,-37.895 -55.727,-63.163c-13.384,-26.006 -20.814,-54.989 -20.814,-83.972c0,-44.582 16.348,-87.687 46.819,-121.123c10.396,-11.146 22.291,-20.809 34.925,-28.983c29.722,-19.32 63.908,-29.722 98.833,-29.722c48.297,0 93.629,18.576 127.816,52.757c34.174,34.186 52.762,79.512 52.762,127.815c0,34.925 -10.407,69.111 -29.733,98.089l-5.192,7.436l-64.658,-64.652l2.227,-4.46c5.203,-11.889 8.18,-24.523 8.18,-37.157c0,-24.518 -9.657,-47.559 -26.756,-64.646c-17.087,-17.093 -40.128,-26.756 -64.646,-26.756c-12.634,0 -25.268,2.977 -37.152,8.174c-10.407,4.46 -19.325,10.407 -27.494,18.582c-1.489,1.483 -2.977,2.971 -4.465,5.198c-14.122,16.349 -21.553,37.157 -21.553,58.71c0,24.517 9.669,47.558 26.756,64.646c17.088,17.093 39.379,26.756 63.158,26.756l89.926,0l2.226,2.227l28.983,29.721Z"
       style="fill-rule:nonzero;fill:darkslateblue;fill-opacity:1"
       id="path2" /><path
       d="M233.679,174.627c0,29.065 -23.562,52.627 -52.627,52.627c-29.065,0 -52.627,-23.562 -52.627,-52.627c0,-29.065 23.562,-52.627 52.627,-52.627c29.065,0 52.627,23.562 52.627,52.627"
       style="fill-rule:nonzero;fill:darkslateblue;fill-opacity:1"
       id="path4" /></g></svg>